<svg width="50" height="50" viewBox="0 0 50 50" fill="none" xmlns="http://www.w3.org/2000/svg">
<g clip-path="url(#clip0_1_224)">
<path fill-rule="evenodd" clip-rule="evenodd" d="M45.5377 14.6371L43.8983 16.2735C40.3462 13.1831 35.7917 11.4547 31.0562 11.4547C27.8679 11.4547 24.6813 12.2729 21.9489 13.7269L28.8703 6.81826C29.4168 7.18133 30.0538 7.36372 30.6925 7.36372C31.6027 7.36372 32.5146 7.00065 33.2421 6.2728C34.6988 4.8188 34.6988 2.54492 33.2421 1.09092C32.5129 0.363072 31.6027 0 30.6925 0C29.7823 0 28.8703 0.363072 28.1428 1.09092C26.9594 2.36423 26.7767 4.1813 27.5964 5.54495L18.8528 14.2723L17.2134 12.6359L12.7511 17.09L14.3906 18.7263L5.46429 27.6361C4.91782 27.273 4.28083 27.0906 3.64215 27.0906C2.73193 27.0906 1.82001 27.4537 1.09252 28.1816C-0.364172 29.6356 -0.364172 31.9095 1.09252 33.3634C1.82171 33.9993 2.73193 34.364 3.64215 34.364C4.55236 34.364 5.46429 34.001 6.19178 33.2731C7.37523 32.0918 7.55796 30.2731 6.73825 28.8191L13.6597 21.9105C10.0171 28.9111 10.8368 37.6385 16.2093 43.8192L14.5699 45.546L19.1244 50L23.5866 45.546L19.1244 41.0919L17.5755 42.638C12.2935 36.4555 12.0202 27.5475 16.4825 21.0019L17.2117 21.7298L21.7662 17.2758L20.9465 16.5479C23.8616 14.4564 27.4137 13.3655 31.0562 13.3655C35.3375 13.3655 39.3438 14.9115 42.6226 17.6388L40.9832 19.1849L45.5377 23.6389L50 19.1849L45.5377 14.6388V14.6371ZM20.9702 47.6596L19.0638 49.5659L17.1575 47.6596L19.0638 45.7532L20.9702 47.6596ZM29.3226 4.62977C29.6851 4.26722 30.1396 4.08509 30.5941 4.08509C31.0485 4.08509 31.5013 4.26722 31.8655 4.62977C32.5924 5.35658 32.5924 6.44595 31.8655 7.17105C31.503 7.5336 31.0485 7.71573 30.5941 7.71573C30.1396 7.71573 29.6868 7.5336 29.3226 7.17105C28.5958 6.53616 28.5958 5.35488 29.3226 4.62977ZM4.90214 34.1328C4.53958 34.4953 4.08511 34.6774 3.63065 34.6774C3.17618 34.6774 2.72341 34.4953 2.35916 34.1328C1.9966 33.8604 1.81448 33.4059 1.81448 32.8613C1.81448 32.4068 1.9966 31.954 2.35916 31.5898C2.72171 31.2255 3.17618 31.0451 3.63065 31.0451C4.08511 31.0451 4.53788 31.2272 4.90214 31.5898C5.62894 32.3166 5.62894 33.4962 4.90214 34.1311V34.1328ZM17.0672 21.3328L15.1609 19.4264L17.0672 17.52L18.9736 19.4264L17.0672 21.3328ZM45.3906 23.2391L43.4843 21.3328L45.3906 19.4264L47.297 21.3328L45.3906 23.2391Z" fill="#333333"/>
</g>
<defs>
<clipPath id="clip0_1_224">
<rect width="50" height="50" fill="white"/>
</clipPath>
</defs>
</svg>
